Coordinates
version=1
nRows=10
nColumns=40
inDegrees=yes

Units are S.I. units (second, meters, Newtons, ...)
Angles are in degrees.

endheader
time	pelvis_tilt	pelvis_list	pelvis_rotation	pelvis_tx	pelvis_ty	pelvis_tz	hip_flexion_r	hip_adduction_r	hip_rotation_r	knee_angle_r	knee_angle_r_beta	ankle_angle_r	subtalar_angle_r	mtp_angle_r	hip_flexion_l	hip_adduction_l	hip_rotation_l	knee_angle_l	knee_angle_l_beta	ankle_angle_l	subtalar_angle_l	mtp_angle_l	lumbar_extension	lumbar_bending	lumbar_rotation	arm_flex_r	arm_add_r	arm_rot_r	elbow_flex_r	pro_sup_r	wrist_flex_r	wrist_dev_r	arm_flex_l	arm_add_l	arm_rot_l	elbow_flex_l	pro_sup_l	wrist_flex_l	wrist_dev_l
     18.47750000	     -2.83687772	     -5.38636569	      3.98945864	      0.97206091	      0.93342958	      0.49861654	      8.69308859	      4.46551575	    -16.99795819	     12.17294088	     12.17294088	      9.10304453	     -0.04308459	     -6.91090363	     34.41273802	    -10.83810129	      2.36078309	     54.99727184	     54.99727184	     11.02066393	    -18.80837699	     15.24693287	    -11.01443972	      6.65609785	      3.21904571	     29.44100471	    -16.32799329	     -1.01942145	     48.55512823	     45.70460457	      0.00000000	      0.00000000	      5.14735565	     -8.08190056	     -2.54947371	     40.73821806	     46.65287626	      0.00000000	      0.00000000
     18.48957143	     -2.99781873	     -5.24340352	      4.20308766	      0.97090508	      0.93354493	      0.49833540	      8.18261081	      4.40223633	    -16.99058816	     11.69342866	     11.69342866	      9.24370299	     -0.07975590	     -7.01128943	     34.87111595	    -10.29617057	      2.63510674	     51.61721934	     51.61721934	     11.08994523	    -18.72451054	     15.48653158	    -11.00850730	      6.41628684	      3.03312858	     31.29804093	    -16.38528120	     -0.85240052	     50.70504202	     45.62689083	      0.00000000	      0.00000000	      4.12535698	     -7.85426299	     -2.38845910	     38.72430770	     46.60428706	      0.00000000	      0.00000000
     18.50164286	     -3.13357301	     -5.21209861	      4.42210066	      0.96986930	      0.93347101	      0.49794940	      7.65100871	      4.44658393	    -17.05520059	     11.23030582	     11.23030582	      9.39688043	     -0.01738140	     -7.22379295	     35.18737993	     -9.81300143	      3.05080244	     48.08024814	     48.08024814	     11.08177898	    -18.53387621	     15.38381706	    -11.02149509	      6.33975868	      2.79157964	     32.92133291	    -16.48749807	     -0.43590959	     53.74918062	     45.50566268	      0.00000000	      0.00000000	      3.31320253	     -7.56764536	     -2.20103388	     35.89074563	     46.54968012	      0.00000000	      0.00000000
     18.51371429	     -3.34369042	     -5.15711590	      4.57013576	      0.96890447	      0.93317754	      0.49749780	      7.26083338	      4.42109092	    -17.15861336	     10.90201169	     10.90201169	      9.53057369	      0.13889398	     -7.66522926	     35.34973480	     -9.34321395	      3.34807570	     44.25557568	     44.25557568	     10.55951090	    -18.25633142	     13.93772807	    -10.97521169	      6.22798803	      3.83890945	     33.13424065	    -18.14362304	      0.33825771	     58.86677936	     45.29644083	      0.00000000	      0.00000000	      3.83764877	     -6.84903220	     -2.00719967	     31.44578612	     46.49193072	      0.00000000	      0.00000000
     18.52578571	     -3.51208627	     -5.10263454	      4.71934581	      0.96806028	      0.93286254	      0.49696012	      6.84832451	      4.39835617	    -17.18167717	     10.64591379	     10.64591379	      9.80328573	      0.17678958	     -7.72380723	     35.37637934	     -8.81848515	      3.77957356	     40.46704692	     40.46704692	     10.56182382	    -17.73448782	     13.92737188	    -10.94674896	      6.10227695	      3.46954390	     35.02708559	    -17.80641667	      0.12148601	     60.95005923	     45.24419047	      0.00000000	      0.00000000	      2.49077088	     -6.74849233	     -1.86763652	     30.17103490	     46.44152016	      0.00000000	      0.00000000
     18.53785714	     -3.66871567	     -5.10389899	      4.82815891	      0.96744296	      0.93239530	      0.49641520	      6.44646905	      4.40230865	    -17.36410773	     10.47364521	     10.47364521	     10.18464874	      0.55175624	     -7.74488917	     35.21490549	     -8.44905229	      4.05232728	     36.55325732	     36.55325732	      9.91261222	    -16.94215727	     12.03306339	    -10.94107499	      6.02955769	      3.84783491	     35.92662722	    -18.40305456	      0.02540980	     64.77145828	     45.13611221	      0.00000000	      0.00000000	      1.90963102	     -6.45424377	     -1.49466660	     27.87892013	     46.34595755	      0.00000000	      0.00000000
     18.54992857	     -3.82596976	     -5.08426434	      4.92292022	      0.96698712	      0.93185283	      0.49580799	      6.05530169	      4.39935532	    -17.34209735	     10.33210573	     10.33210573	     10.52058987	      0.56790380	     -7.82500094	     35.04386868	     -8.08606598	      4.23799348	     32.94418754	     32.94418754	     10.10058934	    -15.61402373	     12.22648586	    -10.86506650	      5.91205464	      3.59460027	     37.68925521	    -18.08077812	     -0.12311563	     66.43930173	     45.09583606	      0.00000000	      0.00000000	      0.56894743	     -6.38342246	     -1.36868356	     26.95592721	     46.29946289	      0.00000000	      0.00000000
     18.56200000	     -3.92425765	     -5.14231968	      5.02960438	      0.96676164	      0.93119294	      0.49516052	      5.59362857	      4.47316436	    -17.40663550	     10.20107904	     10.20107904	     10.89216081	      0.75207635	     -7.87634947	     34.81229348	     -7.85554504	      4.30838985	     29.63410644	     29.63410644	     10.19981947	    -13.99449692	     12.17954434	    -10.86564807	      5.89692407	      3.18878582	     39.29200946	    -17.63254569	     -0.13941118	     68.78014333	     45.02913380	      0.00000000	      0.00000000	     -0.74947184	     -6.29197493	     -1.16790823	     25.88401699	     46.23960748	      0.00000000	      0.00000000
     18.57407143	     -4.02076978	     -5.22865586	      5.10503738	      0.96682290	      0.93041517	      0.49444875	      5.13707143	      4.57013144	    -17.48290286	     10.12179287	     10.12179287	     11.32999728	      0.89994255	     -7.91222720	     34.55899767	     -7.71351814	      4.08776567	     26.67245449	     26.67245449	     10.26982715	    -12.31056702	     12.17477052	    -10.79238272	      5.91790766	      3.02000516	     40.67798567	    -17.43630289	     -0.17480413	     70.98003384	     44.96774839	      0.00000000	      0.00000000	     -1.99952087	     -6.19594361	     -0.97283327	     25.00144199	     46.18072822	      0.00000000	      0.00000000
     18.58614286	     -4.09666246	     -5.37741930	      5.17478234	      0.96716367	      0.92950701	      0.49366714	      4.64515339	      4.72380336	    -17.60815350	     10.06062483	     10.06062483	     11.90590500	      1.25474011	     -7.58356754	     34.32675859	     -7.68801068	      3.58989233	     24.18395667	     24.18395667	     10.11032477	    -10.56767446	     11.59647631	    -10.75541492	      6.01529347	      3.27998810	     41.31327847	    -17.79332042	     -0.29886811	     74.72491101	     44.87230522	      0.00000000	      0.00000000	     -2.96142946	     -6.10036037	     -0.32328647	     24.11993722	     46.03289229	      0.00000000	      0.00000000
